# xmcd
#
# Track frame offsets:
#	150
#	17716
#	28289
#	49301
#	64282
#	84924
#	104899
#	126245
#	141259
#	161046
#	173404
#
# Disc length: 2497 seconds
#
# Revision: 0
# Processed by: cddbd v1.5.1PL0 Copyright (c) Steve Scherf et al.
# Submitted via: EasyCDDAExtractor 7.5.0.1
#
DISCID=9c09bf0b
DTITLE=Hi-Way 13 Blues Band - Stroke of Midnight
DYEAR=1999
DGENRE=Blues
TTITLE0=Get Up and Go Away
TTITLE1=Crime Don't Pay
TTITLE2=No Use Trying
TTITLE3=Stroke of Midnight
TTITLE4=Acting Kinda Strange
TTITLE5=Pack of Lies
TTITLE6=Who You Running From
TTITLE7=Temptation
TTITLE8=Case of The Blues
TTITLE9=Why Do I love You
TTITLE10=Time and Again
EXTD=
EXTT0=
EXTT1=
EXTT2=
EXTT3=
EXTT4=
EXTT5=
EXTT6=
EXTT7=
EXTT8=
EXTT9=
EXTT10=
PLAYORDER=
